<svg xmlns="http://www.w3.org/2000/svg" fill="white" viewBox="0 0 1060 376"
	 width="100%" height="100%">
	<path
		d="M815.514 98.668c-.566-.735-.691-1.93-2.304-1.698-.363.563-.888 1.088-1.004 1.54-.546 3.085-1.213 6.183-1.862 9.307-.389 3.497-.463 6.886-.222 10.141l-2.27 4.897-.091 9.88c.078.232.224.422.429.557l1.131.865c1.298-.556 2.577-1.137 3.916-1.725-.488 2.555.806 4.667-1.733 7.834l-2.834-1.006c-.341.505-.908 1.062-.982 1.483a42.758 42.758 0 0 1-1.039 5.805c-.611 1.748-.816 3.419-.603 4.906.312 1.689-.026 3.67-.975 5.716-1.256 2.42.493 3.657-.775 5.804-1.268 2.147.676 1.739.973 2.641a13.668 13.668 0 0 1 2.583-1.99c.701-.297 1.422.035 1.842.236 1.345-.753 2.709-2.086 2.275.024a11.94 11.94 0 0 1-2.275-.024 67.925 67.925 0 0 1-3.625 2.793c.952.72-.414 2.135-.632 3.231-.218 1.097-1.542 2.48-.57 3.225 1.406-.76 2.571-2.868 4.216-2.198-2.174 2.522-2.174 2.522-4.216 2.198-1.348.836-1.474 1.62-1.256 2.421l.444 1.352-1.877 4.717 2.771 3.597a41.93 41.93 0 0 0-1.892 4.526 14.854 14.854 0 0 0 .085 3.042c-.394 5.349-.007 10.42-.996 15.945-.306 1.931 2.295 1.946 1.147 4.162s.785 3.432-.938 5.849c-1.723 2.418.147 3.036-.543 4.899-.689 1.863.396 3.53-.999 5.856-1.396 2.326.659 3.529-.753 5.747 2.731 2.942-.014 8.084 1.119 13.347l2.732 3.547-1.005 2.833 6.303 8.183 2.976-.274 1.756 2.28c.622-.006 1.338-.251 1.996-.683.659-.431 1.208-1.017 1.533-1.632 10.147-15.444 10.862-16.843 13.888-25.067.63-.446 1.242-.917 1.834-1.413.291-.224.263-.606.507-1.238l-1.62-2.103c-.137-.177.038-.554.046-.802.949-1.095 1.879-2.215 2.807-3.252l-.918-1.191 3.89-11.069c-1.626-2.542 3.059-6.716 1.889-9.528a1.595 1.595 0 0 0-.429-.558l2.215-5.743 2.922-7.498c-1.675-1.657.632-4.524 1.396-6.807.764-2.284 2.267-4.815 1.376-6.833-.468-.608 1.034-2.451 1.316-3.637.815-3.252 3.632-6.834 3.017-9.873-.614-3.039 3.841-6.995 1.965-9.344l6.396-15.745-1.034-1.343c1.691-4.007 2.2-7.848 1.472-11.105l4.386-10.079-.741-.963c.972-3.736 3.864-7.74 3.722-10.94-.141-3.201 2.367-6.668 3.182-9.92.092-.312.472-.766.355-.918-1.327-1.723 1.374-4.853 1.107-6.666-.097-1.558.185-3.268.831-5.04.926-3.539 3.813-7.377 3.209-10.746-.483-2.696 3.84-6.996 2.048-9.41l5.188-12.916c-2.127-2.762 2.853-7.244 1.71-10.279-.939-2.425 3.98-6.9 1.903-9.337 1.695-3.688 2.918-7.34 3.64-10.877.772-3.556 2.007-7.216 3.681-10.909 1.104-3.393 2.678-6.866 4.007-10.312l4.548-11.335-1.093-1.418c.8-.859 2.342-2.046 2.594-2.926 1.061-3.966 5.291-7.87 6.046-11.803l5.432 1.104 2.303 2.99 2.995-.249 6.245 8.108-.987 2.253 5.387 6.992-1.02 2.642 2.479 3.218-.791 3.111 3.337 4.332-.868 3.01 2.498 3.243-.927 2.934 2.498 3.243-1.005 2.833 1.737 2.255-1.005 2.833 1.737 2.254-.88 2.737c.8 1.039 2.281 1.754 2.244 2.913-.289 2.215.074 4.195 1.056 5.767-1.56 3.664.558 6.069-1.208 9.81l1.796 2.331-.972 2.444 1.701 2.727c-1.515 2.256-.45 3.293.823 4.775-.908 1.687-1.539 3.372-1.866 4.99-.062 1.298.658 2.319-.413 4.031l2.634 3.42c-1.242 3.904-.016 6.875-1.153 10.657 2.439 1.27-.174 5.463 2.58 7.056l-3.094 4.603 2.439 3.167c-2.214 3.158-1.4 5.68-1.957 8.491-.238 1.071.612 1.829 1.159 3.143-1.569 4.743-2.128 9.285-1.646 13.378.13 2.59-.268 5.39-1.179 8.296-.419 1.903-.552 3.729-.397 5.432l2.301 3.677-2.857 2.927c.278.59.496 1.218.651 1.88.045.49-.548 1.271-.586 1.825.036.891.144 1.752.324 2.575l-1.701 4.257c-.222 1.867 2.794 2.248.712 5.063.576 2.916.204 6.274-1.084 9.796-.474 1.705-.581 3.322-.315 4.764.258 2.748.021 5.716-.069 8.53.419 2.825-.206 6.099-1.806 9.464.819 2.237.638 5.008-.517 7.948-1.133 3.011-.052 5.449-2.025 8.663 2.419.64-1.831 4.519.629 5.127l-2.985 7.588c2.188 1.462.967 4.704 1.111 7.217.486 2.378.303 5.074-.538 7.922-1.341 3.172-.296 5.476-1.718 8.63-1.422 3.154.073 5.353-2.203 8.518l2.733 3.547-5.238 13.198 1.951 2.533-2.723 3.188.042 6.951-2.083 1.605c.375 2.395.173 5.052-.596 7.846-1.397 3.013.395 4.822-1.425 7.717-.385.62-.924 1.559-.709 1.838 1.503 1.951-1.882 5.487-.966 7.365.915 1.878-1.762 4.263-1.143 7.136l.234.304a78.704 78.704 0 0 0-2.88 7.467c-.663 2.327-2.898 4.856-1.665 6.974.897 1.166-2.413 4.281-1.37 5.98 1.043 1.699-2.345 4.713-1.337 6.883.787 1.453-.257 4.235-.584 6.828l1.522 1.976-1.005 2.832 1.718 2.23-.941 2.743c1.389 1.029 1.19 3.442 3.819 3.234 1.01-1.101.482-2.39 2.256-3.191-.274-.959-1.249-1.621 1.189-2.248-.342.75-.74 1.501-1.189 2.248.448.489.852 1.013 1.21 1.571l4.202-.492 1.604-3.778-2.359.04c.277-2.386.337-4.699.18-6.92-.227-1.157.664-2.328.801-3.443.138-1.114 3.917-3.017 2.473-4.891-.546-.71.68-2.825 1.175-4.337.495-1.511-.764-2.802.542-4.898a53.456 53.456 0 0 0 2.567-5.287l-2.166-2.812 2.527-2.754c1.186-2.327 2.02-4.642 2.475-6.871l-4.439-1.022c.3-2.37 2.518-3.11 4.154-4.693.305-.638 1.048-1.655 1.114-2.432-.056-2.394.541-5.028 1.75-7.726-1.346-1.749.632-4.524 1.357-6.858.208-.766-.608-1.308-.421-2.098.53-2.588 2.756-5.473 2.226-7.971-.53-2.499 3.249-6.298 2.291-8.749-.958-2.45 3.028-5.723.947-7.39.53-1.886 1.273-3.81 2.216-5.743 1.245-2.089-.578-2.905.462-4.917 1.039-2.012 2.216-3.846.623-4.88 1.571-2.098.081-3.17.584-4.93.74-1.783 1.132-3.522 1.159-5.132-.45-2.649-.267-5.592.542-8.692 1.032-3.056.194-5.438 1.677-8.598 1.085-2.081 1.387-4.105.852-5.703-1.034-1.342 1.009-3.603.009-4.729-1.001-1.127.824-2.895 1.011-4.291a13.08 13.08 0 0 0 .034-2.368c-.136-1.469 1.129-3.534.048-4.679 1.143-2.688 1.737-5.31 1.751-7.726.256-1.65 1.326-3.363.728-5.001-.598-1.639 2.06-4.049 1.35-6.005-.45-1.188 1.604-3.779 1.507-5.198-.097-1.419-.635-2.376.472-3.956l-1.951-2.533c.901-2.345 1.386-4.627 1.435-6.757-.071-2.247.15-4.718.06-6.99-.09-2.271 2.782-5.008 1.087-6.69 1.289-2.809.295-4.789.556-7.209.26-2.421.336-4.821.638-7.274-.278-2.227-.09-4.66.555-7.209-1.715-1.02.329-3.28.604-4.905a19.04 19.04 0 0 0 .249-3.987c-.124-2.279-.021-4.652.308-7.099.21-2.14 1.099-4.52 1.357-6.858.264-8.277.861-16.81.947-25.232.34-1.969.125-3.755-.626-5.21-.703-.911.159-3.069.045-4.596-.114-1.527 1.425-4.528.627-5.65-.989-1.578-1.324-3.586-.972-5.83.183-2.17-.112-4.158-.87-5.87-.192-1.993.021-4.16.632-6.42a41.382 41.382 0 0 1 .304-6.33c.502-2.364-3.207-2.697-.5-5.993-2.903-.75-.447-4.459-1.547-6.317-1.051-1.828-1.007-4.323.122-6.996-2.348-1.582.357-6.088-2.299-7.553l.941-2.744-1.737-2.255 1.005-2.832-1.737-2.255.992-2.42-3.571-4.635.512-1.404c.152-.32.452-.792.354-.919-1.327-1.723-.611-4.414-1.279-6.402a9.767 9.767 0 0 0-1.854-2.406l.88-2.737-2.576-3.344 1.005-2.833-2.635-3.42 1.005-2.833-4.41-5.726.906-2.271-7.357-9.552-2.245.276.628-2.461-2.626.125-2.693-3.496-2.995.248-1.757-2.28-10.059 1.25-12.876 9.918c-2.941 4.284-5.48 8.056-8.161 11.816a104.406 104.406 0 0 0-4.557 5.892 34.292 34.292 0 0 0-2.216 5.743 22.61 22.61 0 0 1-1.562 3.747 24.487 24.487 0 0 1-2.704 3.213l.995 1.292c-.816 2.647-3.231 5.718-1.044 7.263L883.15.551c-2.391 6.12-4.58 12.329-7.362 18.63-1.533 3.44-.438 6.068-2.257 9.568-1.719 3.469-3.082 6.926-4.068 10.32-.612 1.964.192 3.525-.939 5.849-1.072 1.797-1.583 3.602-1.465 5.165.294 1.59-1.148 4.114-1.865 6.2a44.09 44.09 0 0 1-2.215 5.743c-1.04 2.012.845 2.82-.523 4.924-2.012 3.164.234 5.39-2.105 8.645s-.092 4.794-1.609 7.738a78.009 78.009 0 0 0-3.733 9.375c-.103 1.038-.024 2.01.233 2.888l-3.82 9.522c1.44 2.645-1.728 6.377-2.298 9.601.958.554.431 1.767.066 3.017-.087 1.052.019 2.032.314 2.907l-2.084 1.605c-1.003 2.145.396 3.53-.98 5.882-.874 1.569-1.5 3.141-1.856 4.658-.116.453.95.803.859 1.115-2.171 4.336-1.269 7.921-2.928 12.145 1.054 1.368-.617 3.422-1.201 5.164-.584 1.741 1.255 2.06-.049 4.074-1.304 2.014-.447 3.816-1 5.856l-1.541 1.188c-1.418 3.035-2.21 6.018-2.333 8.78.082 2.52-3.164 6.151-1.941 8.6.234.304-.507 1.238-.648 1.831-.944 4.118-5.017 8.829-3.67 12.474L825.421 206l-.05 6.659c-1.21 1.618-2.656 3.62-4.155 5.38.233.991 1.249 1.621-1.231 2.28.371-.761.782-1.522 1.231-2.28l-2.186-2.838 2.374-4.331c-.801-1.643-1.359-2.626-1.689-3.744-.137-.178.763-.992 1.207-1.536l-2.068-2.685c1.615-8.591-.681-15.623 2.636-24.677l-1.678-2.179.983-2.775-2.049-2.66 2.917-5.436-4.41-.64c-1.63-1.445-2.768-3.304-3.361-5.484l3.351-.563c1.062-2.069-1.008-2.17-1.009-4.067l.698-2.112-1.952-2.533 2.708-2.691c2.456.086 2.52 1.893 3.61 2.79l.916-.706c.223-3.159.426-6.343.504-9.431-.175-.228-.84-.402-1.3-.653-1.802 1.711-1.632 3.397-2.664 5.16-1.911.019-2.193-.692-1.508-3.682l-1.659-2.153c1.065-1.548.545-3.085 2.543-4.543l.257-4.234-6.372.347c-.918-3.258-.114-7.343 2.256-11.466 3.566-.153 6.684.55 9.08 2.048.79-.615 1.437-1.368 1.843-2.147.406-.778.549-1.54.408-2.171-.849-2.05.715-4.588 1.415-6.782l-1.756-2.28.939-2.661c-2.704.024-6.337 1.773-7.263-1.671-2.146 2.904-3.231 4.426-4.588 6.198.211 1.049 2.302 1.092.551 3.128-2.024-.904-2.024-.904-.551-3.128l-1.385-1.799c.502-2.365 2.605-5.237 1.239-7.01.008-.248.889-1.088 1.311-1.574Zm-8.767 111.705c-.055-.846-3.11.014-.858-2.407 1.449-.187 1.936.446.78 2.306l.078.101Zm13.948-98.945c-.413.122-.807.153-1.143.092-.337-.062-.606-.215-.783-.444-.177-.23-.256-.529-.23-.871.027-.341.157-.713.38-1.082.388-.101.754-.121 1.066-.056.313.065.563.212.73.429.167.216.245.496.228.815-.017.319-.129.667-.326 1.016l.078.101Zm-.517 4.759.396-.951c.428.049.821.153 1.169.31 0 0-.18.543-.291.83l-1.274-.189Zm-6.976 54.297-.999.083a9.024 9.024 0 0 1 1.019-1.35s.592-.093.898-.126l-.918 1.393Zm2.418 5.121-.397.951a3.507 3.507 0 0 1-1.188-.336s.18-.542.291-.829l1.294.214Zm101.984 182.05c.25-.192.882-.235.918-.101.07.38.056.799-.039 1.241-.306.034-.84.203-.877.07a3.953 3.953 0 0 1-.002-1.21ZM532.9-320.466l-1.46 1.811 2.595 3.37-.907 2.959 7.006 9.095-.966 2.884 2.595 3.369c-1.67 2.659.397 4.135-1.087 6.691 1.49 1.072.91 3.336 1.04 4.971a9.867 9.867 0 0 0 3.149 4.518l-1.042 2.699 2.674 3.471-.953 2.47 3.474 4.509-.966 2.884 5.288 6.865-1.024 2.808 10.733 13.934-.947 2.304 4.468 5.802-1.085 2.814 4.449 5.776-1.105 2.789 4.43 5.751-1.105 2.789 4.527 5.878-.972 2.444 2.615 3.395-1.005 2.833 1.795 2.33-.765 1.679c-.193 2.249 1.694 2.975 2.314 4.556l-.928 2.329 3.572 4.636-1.128 2.847c.703.912 2.504 1.785 2.381 3.09-.074 2.121.233 4.087.911 5.838a31.54 31.54 0 0 1-.682 6.096l3.317 4.307-1.005 2.833 1.601 2.077-.941 2.743c.897 1.166 2.618 2.02.728 4.566l3.259 4.231-.811 7.567 2.323 3.015-.986 2.858 2.615 3.395-1.024 2.808 1.775 2.305-.95 2.387 2.497 3.93-.972 2.444a12.342 12.342 0 0 1 2.38 3.091c.509 1.264-.859 3.367.322 4.556.586.76-.29 2.726.243 3.849.534 1.124 1.776 2.306.364 4.524l1.756 2.28-1.004 2.833 1.736 2.254-1.005 2.833 2.518 3.268c-.299 1.078-1.095 2.458-.719 2.774 1.363 1.251.785 3.432.874 5.1.089 1.666 1.289 2.276.714 4.374s1.323 2.493 2.174 3.856l-.856 2.596 3.494 4.535-1.025 2.808 6.245 8.107 6.213-2.364 1.067-2.235 1.605.015c1.89.644-2.717 5.524 2.016 4.341l.842-2.182 6.792-5.232 4.423-6.152-.629-1.938 2.382-2.682 3.381-7.852c3.648-2.245 1.798-5.422 5.288-7.787a2.27 2.27 0 0 0 .407-.413c.113-.15.199-.305.251-.457 1.105-2.789 2.215-5.743 3.357-8.398 1.142-2.656 4.965-5.278 4.021-7.538 2.151-2.464 5.323-3.777 5.424-6.318 2.876-.317 6.109-2.929 8.702-2.666l5.819 2.986 3.861.013-1.053 3.718 7.962 10.336-.951 2.387 3.572 4.636-1.128 2.847a11.177 11.177 0 0 0 1.952 2.533c1.189.941-.724 2.94-.007 4.042.717 1.103 1.483 1.926 2.302 2.99l-.879 2.736 2.576 3.344-1.005 2.833 1.736 2.255-.733 1.978c-.167 2.025 1.701 2.726 2.383 4.3l-.793 1.902c-.347 1.963 1.737 2.255 1.763 4.617-1.656 2.85 1.673 3.636 2.144 6.058-2.751 3.41 3.124 3.366-.28 6.877l2.771 3.597-.986 2.858 1.718 2.23-1.005 2.832 3.317 4.307a34.91 34.91 0 0 0-.662 6.122c.242 1.952 1.582 3.261.85 5.844-.282 1.186 1.444 1.875 2.283 2.964l-.838 2.705L709.213.23l-.985 2.858 2.615 3.394-1.025 2.808 1.854 2.407-1.005 2.833 1.678 2.178-.926 2.934c3.451 1.378 1.098 6.34 3.18 8.611-1.85 3.201.957 3.743 1.753 5.552l-.899 2.711 1.698 2.204-1.005 2.833 1.756 2.28-.928 2.33 2.635 3.42-1.106 2.789 3.572 4.636-1.147 2.82 3.571 4.637-.953 2.47 2.693 3.496 2.687-.132 1.737 2.255 12.999-1.657c1.753-2.723 5.774-.088 7.027-4.323-.88-.453-2.85.782-3.238-.412-2.486.825-2.486.825-2.823-1.337 2.415-1.175 1.923.86 2.823 1.337l2.519-3.797 3.667-2.825-.403-2.677c1.252-1.65 2.929-3.87 4.624-6.065 0 0 .542-.417 1.262-.689l1.955 1.159 3.297-1.41.965-4.78c-1.287-1.067-4.993-.19-5.418-2.81l-3.983 1.898s-.462-.17-.312-.406l7.503-19.221.917-.706a2.25 2.25 0 0 1-.923-1.155c-.174-.483-.204-1.045-.087-1.653.116-.608.376-1.248.764-1.881a8.667 8.667 0 0 1 1.489-1.8l-1.776-2.305c-2.244 2.173-2.229 4.26-3.132 6.45-.903 2.189-2.216 3.846-.623 4.88l-3.338 8.424-4.935 12.642-8.353 11.48-5.351-1.086-1.718-2.23.95-2.386-3.571-4.637.997-2.584-3.239-4.206.849-7.516-2.342-3.04.964-2.801-2.832.203c-.925-3.105-.313-6.97 1.731-10.94l-3.831-.32.789-2.424-2.615-3.395.961-2.717-2.325.257.576-11.06-3.239-4.206c1.072-1.108 1.849-1.91 2.607-2.735.75-2.475-1.951-2.534-1.903-5.316l.59-1.302c-.274-2.252-2.537-3.294-3.445-5.42l.769-2.45-2.141.237c-.564-1.422 1.41-3.427 1.017-5.748l-3.006-3.902.986-2.858-4.449-5.776 3.149-7.633-4.371-5.675.829-3.061-2.421-3.746.928-2.33-4.059-5.27.381-8.124c.477-2.175.008-4.044-1.316-5.243l-2.225-2.888.479-6.706-2.237.027c-1.007-.568-1.576-1.55-1.618-2.79.778-.8 1.536-1.627 2.313-2.427-.004-.523.201-1.205-.033-1.509l-8.469-10.995.941-2.743c-.106-1.776-2.419-.64-3.504-1.015l.666-2.411-2.673.323-6.264-8.132-2.611.316-2.576-3.344c-3.3.887-4.113-2.323-8.001-.216-2.126 1.032-4.258 3.522-6.804 3.062l-13.751 10.592c-.212 2.827-3.395 5.763-4.75 8.745-1.355 2.981-2.496 6.242-3.734 9.375s-2.251 6.214-3.753 9.35c-1.503 3.135-3.666 6.618-5.885 10.547-1.25.963-2.592 1.634-3.455-.003l.838-2.704-3.454-4.485.986-2.858-1.717-2.23 1.004-2.832-1.775-2.306.899-2.71c-1.465-4.551-2.207-9.504-2.211-14.767l-2.362-3.065a43.69 43.69 0 0 1 .682-6.096c.578-2.181-2.201-2.341-.934-5.093 1.266-2.752-1.65-3.089-.645-5.922.584-1.741-2.826-1.859-1.743-4.591 1.083-2.731-1.41-2.95-1.969-4.538.386-1.055.508-2.062.356-2.946-.151-.884-.572-1.62-1.23-2.154l.922-2.768-1.737-2.255L613-152.52l-2.635-3.42.795-1.985c-.34-1.701-1.23-3.092-2.594-4.057l-3.031.115 2.938-2.908 1.376-3.644-2.576-3.344.985-2.858-1.717-2.23 1.005-2.833-2.635-3.42.909-2.354-1.577-2.823.728-2.417c-1.034-1.343-2.583-2.491-2.129-3.971.312-.905.388-1.762.221-2.504a2.834 2.834 0 0 0-1.183-1.761c-1.451-1.022.248-3.299-.385-4.466-.634-1.167-1.776-2.305-.364-4.523l-2.654-3.446 1.024-2.807-1.776-2.306.97-2.361-3.571-4.637 1.085-2.814-3.551-4.611 1.085-2.814-4.449-5.776.994-2.502-6.166-8.006.966-2.883-2.537-3.294.982-2.775-6.225-8.082.731-1.895c.092-.312.308-.721.21-.848l-9.757-12.667.928-2.33-4.625-6.004-3.193.078.548-4.459-3.569-.238-1.639-2.128.958-2.635-7.104-9.222 1.003-2.75c-1.056-.681-.795-2.497-3.022-2.113l-1.267 2.752-6.739.387 4.551-6.331 3.293-.639c1.185-1.478.305-1.931-.472-2.422-2.038.198-3.278 2.122-4.935 3.075l-3.022.471-.061 3.801c-2.806.062-2.671-2.262-4.1-3.341l4.04-5.615 2.951 1.158c.314-1.754-.029-3.285-.978-4.373l2.521-2.588c.74-1.539.238-2.363-1.867-1.993l-.95 2.387-3.675 3.073-1.767 3.137c-1.411.926-2.786 1.985-3.4.843Zm220.708 371.35c-.244-1.266-1.094-2.024 1.22-2.555a9.617 9.617 0 0 1-1.223 2.032.79.79 0 0 1 .317.523c.037.22 0 .471-.107.734a2.606 2.606 0 0 1-.506.77 3.33 3.33 0 0 1-.785.622 66.913 66.913 0 0 1-3.766 6.575c-.874.455-1.756.865-2.641 1.226l1.532-4.045 4.875-3.756c-.646-.753-.272-1.647 1.084-2.127Zm57.741-126.219-1.346-1.748c-1.928-.09-3.249 1.816-5.011 2.89l-1.283 2.644-7.79 2.73c-.989 2.336 1.577 2.823 2.08 4.252-.681 3.637-2.793 7.557-5.984 11.108l-2.122.262-1.18 2.605-2.859.425-3.876 2.986c-.644 2.352-2.434 4.942-2.435 7.527l3.475.028-.897 2.628.995 1.292 2.79-1.463 1.336-3.006 4.233 1.099 9.771-24.723c.209-.16.792-.61 1.534-.94 3.179-.268 1.086 2.272.791 3.872l2.615 3.395-.861 2.157c.465 1.876 1.771 3.24 3.717 3.878 1.447-2.611 1.988-5.19 1.534-7.318l3.85 2.929 3.034-2.095-.563-2.11-3.098.288-1.308-1.698-2.082.918-4.761-6.182 2.87-3.341-2.563-.57c1.39-2.16 3.617-3.148 5.394-4.72Zm-21.511 30.859-.979.108c.293-.467.627-.928.999-1.375l.918-.101-.938 1.368Z"
		opacity=".2"/>
	<path
		d="m818.671 78.633-.98 2.693 1.795 2.33 6.933-2.635c3.972-3.463 1.601-5.593 2.606-8.425.446-1.232-.885-2.184-2.088-2.711-2.292 1.765-.508 1.925-.493 2.72.015.796-.599.947-1.24 1.925-1.981-1.623-2.986-3.876-4.705-5.418-3.477 3.243-.322 5.011-3.013 7.81-.253.276.756 1.154 1.185 1.712Zm-.824 55.131c1.047.929 1.197 2.59 3.02 2.801.208-.161.659-.266.666-.514l2.633-6.064-1.952-2.534 2.259-5.17-1.366-1.774a49.56 49.56 0 0 0-7.5 6.383l3.151-.046c-.036 1.763 3.341 1.665 1.983 4.729l-2.894 2.189Zm7.063-106.679 2.922 2.673 2.843-1.826.274-5.419c-.378-.996-1.15-1.729-2.229-2.118l-2.189 3.019-2.751-1.07-2.125 1.636-.438 5.465 3.693-2.36Zm-8.606-39.792c-.444.544-1.369 1.498-1.271 1.625 1.535 1.562-2.216 5.743 1.86 6.035L814.095.458l3.376 4.383c.445-.544 1.239-1.237 1.23-1.593.044-2.012-.201-3.882-.238-5.912-.176-.228.827-1.081 1.271-1.625l-2.205-2.863.98-2.692-2.205-2.863Z"
		opacity=".2"/>
	<path
		d="m819.732-4.289 2.302 2.99 3.442-1.48 1.474-6.706-2.607 1.443-3.326-.87c-1.788 1.902 1.974 2.476-1.285 4.623Zm-45.763-7.175-1.795-2.331c-2.792 3.443-2.876 6.696-4.645 9.915.637 1.69 1.897 1.688 3.947-.133.652-2.602-.564-4.612 2.493-7.451Zm43.975 51.139c.437-3.54.43-6.93-.023-10.114-.097-.127-.589.01-.873-.014-2.95 2.636-1.375 4.248-1.747 6.351-.372 2.103-.256 3.548-.402 5.598l3.045-1.82ZM781.093-2.218c2.292-1.765 1.182-3.292 2.521-4.485-.739-2.337-5.369.099-5.012-2.8l-1.958 1.509-.346 3.172 2.609-.233 2.186 2.837Zm30.33-40.961-1.199 3.185 3.604-2.13c.677-2.742-1.835-2.987-1.951-5.723.141-.593 1.756-2.806-.862-2.93-1.633 1.501-1.514 2.862-2.207 4.203l2.615 3.395Zm11.686-21.03c-1.756-2.28-3.064-3.978-4.956-5.83l-1.953 4.532 2.996.356c1.66.861-1.773 3.99.425 4.516.301.023.614.025.935.007 1.72-1.042.7-2.194 2.553-3.581Zm-2.142 29.461c2.003 1.566-3.291 3.14-2.122 4.743 1.115.07 2.217-1.344 3.501-2.091a38.357 38.357 0 0 1 4.286-1.848l1.316-3.032c-.839-1.09-2.981.439-3.855-.18l-3.126 2.408Zm-54.965 57.073 2.125-1.637 2.502-7.095-3.059.338-2.283 3.414 1.131 1.47-.416 3.51Zm49.843 30.231c-2.359 3.23-1.09 5.481-1.583 8.202-.114.37.757.466 1.256.769 1.833-1.413 1.369-2.79 2.246-4.152-2.421-.557 1.728-4.48-.921-4.902a6.05 6.05 0 0 0-.998.083Zm.458-65.264.875-.674c.884-3.295.361-6.187-1.469-8.112-1.875 1.444-1.411 2.822-2.626 4.606l3.22 4.18Zm-1.936 93.77c-3.683 3.321-1.19 5.437-2.542 8.336-.241.549.761.988 1.522 1.976l1.494-2.887c1.229-2.197-.743-3.464.753-5.746.258-.441-.798-1.122-1.227-1.679Zm.304-7.622a30.942 30.942 0 0 0-1.623 2.46c-.339.8-.616 1.593-.827 2.374l2.146 2.787c.5-.386.908-1.063 1.291-1.6.383-.537 1.151-1.694 1.706-2.525l-2.693-3.497ZM793.277-58.63l-.897-1.165c-2.298.034-3.766 2.094-5.73 3.768l.652 1.88a6.053 6.053 0 0 0 1.777-.458 8.241 8.241 0 0 0 1.762-1.014 8.36 8.36 0 0 0 1.475-1.413c.418-.517.745-1.06.961-1.597Zm-18.104 40.71 1.405 1.824c2.359-1.333 2.636-3.646 4.8-5.232l-.901-1.688c-.531.087-.876.07-1.204.161-2.872.84-1.983 3.546-4.1 4.934Zm41.687 38.005c-.614 1.345-.934 2.663-.941 3.87-.007 1.208.3 2.278.9 3.145 1.75-1.349 1.47-2.747 2.266-4.127l-2.225-2.888Zm-41.709-38.029-1.776-2.306a8.596 8.596 0 0 0-1.485 1.796c-.386.632-.643 1.271-.756 1.877-.113.606-.079 1.166.1 1.645.179.479.499.866.939 1.138.444-.544.908-1.062 1.333-1.632.424-.569 1.109-1.662 1.645-2.518Z"
		opacity=".2"/>
	<path
		d="m778.601-9.501 3.884-1.337 1.415-3.593c-2.483.138-4.185 2.497-6.196 3.764l.897 1.166Zm36.168 83.068c1.917-1.477 1.477-2.995 2.526-4.65l-1.44-1.353c-1.917 1.476-1.678 2.907-2.433 4.255l1.347 1.748ZM786.822-26.934l-3.876 2.985 1.776 2.306 3.834-2.953-1.734-2.338Zm30.038 47.019c1.917-1.477 1.497-2.97 2.546-4.625l-1.441-1.353c-1.917 1.477-1.678 2.907-2.432 4.255l1.327 1.723Zm5.977-8.276c1.916-1.476 1.497-2.97 2.526-4.65l-4.251.084c-.657 2.767 1.116 3.259 1.725 4.566Zm-51.384 17.418c-1.821 1.686-2.114 3.202-2.299 5.202l3.784-2.672-1.485-2.53Zm44.838-51.169c.204-2.58.204-2.58-1.968-3.934-1.466 2.664.901 2.98 1.968 3.934Zm-5.338-53.652c1.631 1.084 1.291 3.486 4.116 2.844.873-1.883-.513-2.39-1.202-3.111-.312-.406-1.588.093-2.914.267Zm10.014 40.846c-.919-.503-.426-2.537-2.842-1.363.316 2.22.315 2.22 2.842 1.363Zm-6.162.791a5.142 5.142 0 0 0-.898-1.77c-.117-.152-1.004.248-1.521.525-.517.278-.43.735-.332.862.097.127.989.853 1.523 1.289l1.228-.906Zm5.537 12.447c-.509 1.926-.105 2.624 1.464 2.505 1.755-2.118.605-2.403-1.464-2.504Zm9.652 18.562c1.473-2.225 1.473-2.225-.55-3.129-1.752 2.036.359 2.105.55 3.129Zm-.002 0c-1.432 2.192-1.432 2.192.573 3.07 1.771-2.01-.341-2.079-.573-3.07Zm-.443 11.402c1.431-2.193 1.431-2.192-.573-3.07-1.732 2.06.34 2.079.573 3.07Zm-44.808-30.072c-1.473 2.225-1.473 2.225.531 3.103 1.752-2.035-.301-2.028-.531-3.103Zm-6.569-8.785c-2.169.46-3.292 1.244-3.929 2.744 1.768.657 2.744-.66 3.929-2.744Z"
		opacity=".2"/>
	<path
		d="m773.972-11.465 1.775 2.306 1.959-1.509a3.044 3.044 0 0 0-1.19-1.545c-.607-.098-1.702.463-2.544.748Zm2.192 30.603c-2.169.46-3.291 1.244-3.928 2.744 1.767.657 2.744-.661 3.928-2.744Zm36.286-80.546c1.473-2.225 1.473-2.225-.551-3.128-1.543 1.875.549 1.919.551 3.128Zm2.251 9.044.937-1.369c-.097-.126-.792.005-.898.127-.4.445-.756.909-1.06 1.382l1.021-.14Zm1.144 4.931a5.247 5.247 0 0 0-.021 1.267l.918-.102c.058-.44.065-.865.02-1.267l-.917.102Zm12.286 22.587-.999.083a6.58 6.58 0 0 0-.02 1.267l.918-.102.101-1.248Zm.6 8.62 1.178-2.522c-2.272.499-1.464 1.29-1.178 2.523Z"
		opacity=".2"/>
	<path
		d="m828.64-17.205-1.177 2.522c2.271-.498 1.463-1.289 1.177-2.522Zm-37.882-45.297 1.15.286c.111-.288.41-.76.29-.83a3.504 3.504 0 0 0-1.188-.336l-.252.88Zm31.645 49.698a8.931 8.931 0 0 0-1.565.64s-.242.55-.352.836a12.51 12.51 0 0 0 1.584-.615l.333-.861Zm7.121 20.794-1.328 2.758c2.402-.76 1.594-1.55 1.328-2.758Zm-6.791-6.92-.938 1.368c.209-.16.751.027.898-.127.4-.445.756-.909 1.061-1.382l-1.021.14Zm5.939 15.73-.938 1.368c.306-.034.751.027.899-.127a9.02 9.02 0 0 0 1.018-1.35l-.979.108Zm-5.882-5.481-1.178 2.522c2.064-.338 1.361-1.25 1.178-2.522Zm-5.367-6.967-1.177 2.522c2.063-.338 1.38-1.225 1.177-2.522Zm-1.47 6.018 1.274.188c.111-.287.41-.76.332-.861a6.339 6.339 0 0 0-1.21-.279l-.396.951Zm-29.128-36.782 1.219-2.554c-2.313.53-1.444 1.314-1.219 2.554Zm-5.586-5.184-.377.977a10.26 10.26 0 0 0 1.565-.64s.283-.582.394-.869l-1.582.532Zm-2.009-3.982-.938 1.369c.325-.009.812.02.959-.134.373-.447.708-.908.999-1.375l-1.02.14Zm42.893 67.15-.979.108a5.244 5.244 0 0 0-.02 1.267s.592-.093.918-.102l.081-1.273ZM546.009-324.911l-.377.976a10.938 10.938 0 0 0 1.606-.672s.241-.549.352-.837l-1.581.533ZM828.894 46.137l-.377.976a8.956 8.956 0 0 0 1.565-.64s.241-.55.352-.836l-1.54.5Zm-54.411-68.573 1.178-2.522c-2.272.499-1.464 1.29-1.178 2.522Zm54.708 72.058-.938 1.368c.25-.192.793-.005.94-.159a8.892 8.892 0 0 0 1.018-1.35l-1.02.14Z"
		opacity=".2"/>
	<path
		d="M774.437-22.925c-1.334 1.027-1.727 1.896-1.061 2.674 1.394-1.034 1.727-1.895 1.061-2.674ZM538.408-329.35c-.52.155-1.047.37-1.565.64 0 0-.241.549-.393.868a16.408 16.408 0 0 0 1.626-.647l.332-.861Zm-7.802 3.063 2.606-.15c.511-2.009-.911-.752-2.606.15Zm-1.21-4.155-.396.951c.528-.18 1.057-.385 1.585-.615 0 0 .263-.607.374-.894l-1.563.558ZM822.215 51.684l-1.02.14a5.193 5.193 0 0 0-.02 1.267s.592-.093.917-.102l.123-1.305ZM781.11-2.715l-1.239 2.53c2.314-.532 1.405-1.366 1.239-2.53Zm-5.365-6.443c-.916.706-1.791 1.38-.956 1.947.156.203 1.215-.491 1.854-.782l-.898-1.165ZM532.884-319.969l1.239-2.528c-2.185.351-1.463 1.289-1.239 2.528Z"
		opacity=".2"/>
	<path
		d="m531.884-326.869-2.584.093c-.553 2.041.889.809 2.584-.093Zm291.942 384.7-1.021.14c-.062.428-.061.834.002 1.21 0 0 .57-.035.876-.07l.143-1.28Zm2.402 31.129 1.22-2.554c-2.255.607-1.406 1.365-1.22 2.554Z"
		opacity=".2"/>
	<path
		d="m826.237 88.025-1.219 2.554c2.313-.53 1.505-1.321 1.219-2.554Zm-61.659-75.139 1.178-2.522c-2.272.498-1.523 1.213-1.178 2.522Zm61.601 80.148-.998.083a5.244 5.244 0 0 0-.02 1.267l.918-.102.1-1.248Zm-53.744-65.896 1.219-2.555c-2.313.531-1.463 1.29-1.219 2.555Z"
		opacity=".2"/>
	<path
		d="M763.511 15.04c1.334-1.028 1.686-1.863 1.02-2.642-1.353 1.002-1.728 1.895-1.02 2.641Zm56.497 73.948-1.274-.19c.098.127-.41.76-.291.83a3.92 3.92 0 0 0 1.169.31l.396-.95ZM772.43 26.617c-1.375 1.059-1.727 1.895-1.061 2.674 1.353-1.002 1.727-1.896 1.061-2.674Zm-8.386-2.784c.448.583.839 1.09 2.013-.057.334-.257-.01-.962-.055-1.451l-1.958 1.508Zm53.665 74.757 2.584-.094c.553-2.04-.889-.809-2.584.093Zm-52.863-69.32 1.197-2.497c-2.313.53-1.463 1.289-1.197 2.497Z"
		opacity=".2"/>
	<path
		d="M818.349 98.298c-.604-.785-1.5-.741-2.836.369.563.817 1.356.812 2.836-.369Zm-4-5.193a9.064 9.064 0 0 0-1.585.615s-.283.58-.374.893a16.17 16.17 0 0 0 1.607-.672s.241-.549.352-.836Zm-49.574-64.79-1.178 2.522c2.349-.397 1.444-1.314 1.178-2.522Zm2.322 10.08-.355.92a8.963 8.963 0 0 0 1.565-.641s.241-.55.352-.837l-1.562.558Zm-4.947-3.577-.938 1.368c.306-.034.793-.005.899-.127a11.02 11.02 0 0 0 1.06-1.382l-1.021.14Zm57.762 117.659c1.333-1.027 1.685-1.863 1.019-2.642-1.353 1.002-1.727 1.896-1.019 2.642Z"
		opacity=".2"/>
	<path
		d="m819.867 151.987-1.219 2.554c2.313-.531 1.505-1.321 1.219-2.554Zm.812 7.004.396-.951a8.99 8.99 0 0 0-1.565.641s-.241.549-.393.868l1.562-.558Zm-15.393 6.649c-.958.739-1.791 1.381-.956 1.948.156.203 1.215-.492 1.854-.782l-.898-1.166Zm14.613 40.171 2.626-.125c.511-2.008-.931-.777-2.626.125Z"
		opacity=".2"/>
	<path
		d="M213.484 373.333c.92-.119 1.854-.877 2.829.429-.141.654-.141 1.397-.379 1.799-1.795 2.567-3.514 5.23-5.264 7.897-2.197 2.748-4.542 5.197-7.014 7.328l-1.857 5.068-6.922 7.05c-.219.109-.457.14-.697.091l-1.411-.188c-.525-1.311-1.018-2.626-1.55-3.989-1.462 2.152-3.87 2.73-4.314 6.765l2.716 1.292c-.116.598-.11 1.393-.355 1.743a42.795 42.795 0 0 0-3.37 4.84c-.804 1.668-1.84 2.995-3.042 3.895-1.415.974-2.577 2.613-3.353 4.732-.823 2.599-2.934 2.237-3.556 4.651-.622 2.415-1.708.752-2.555 1.181a13.732 13.732 0 0 0-.42-3.235c-.285-.705-1.03-.98-1.47-1.135-.418-1.484-.44-3.39-1.625-1.592.516.606 1.06 1.139 1.625 1.592.146 1.518.342 3.033.589 4.538-1.182-.164-1.217 1.803-1.838 2.732-.621.929-.663 2.844-1.877 2.683-.457-1.532.21-3.846-1.427-4.535-.246 3.32-.246 3.32 1.427 4.535.362 1.544-.103 2.188-.824 2.6l-1.271.642-2.006 4.663-4.504.584a41.847 41.847 0 0 1-1.862 4.538 14.87 14.87 0 0 1-2.211 2.091c-3.504 4.061-7.364 7.373-10.571 11.979-1.149 1.582-2.999-.247-3.754 2.132-.756 2.379-2.982 1.872-3.473 4.8-.491 2.928-2.25 2.042-3.08 3.847-.83 1.805-2.776 2.217-3.434 4.848-.658 2.631-2.962 2.029-3.531 4.595-4.012.15-5.707 5.727-10.229 8.647l-4.44.576-1.293 2.714-10.243 1.329-1.91-2.298-2.855.371c-.435-.444-.768-1.123-.928-1.894-.16-.771-.136-1.573.07-2.238 3.746-18.096 4.229-19.59 7.905-27.546-.131-.76-.23-1.527-.298-2.295-.047-.365.243-.615.517-1.234l2.632-.342c.222-.028.365-.418.535-.599.103-1.446.237-2.895.315-4.284l1.49-.194 5.077-10.577c2.947-.648 2.586-6.913 5.402-8.074.225-.082.459-.112.698-.09l2.494-5.628 3.236-7.368c2.356.012 2.752-3.646 3.827-5.801 1.074-2.155 1.801-5.007 3.858-5.804.761-.099 1.002-2.464 1.641-3.502 1.723-2.876 2.265-7.401 4.848-9.115 2.583-1.715 2.23-7.662 5.218-7.997l6.611-15.656 1.681-.218c1.637-4.029 3.993-7.105 6.811-8.893l4.025-10.229 1.205-.156c1.955-3.33 2.741-8.206 5.104-10.369 2.364-2.163 3.041-6.388 4.764-9.264.156-.285.209-.875.399-.9 2.157-.28 2.46-4.403 3.931-5.496 1.17-1.034 2.18-2.442 2.976-4.152 1.847-3.157 2.52-7.912 5.33-9.868 2.248-1.564 2.23-7.662 5.205-8.101l5.465-12.802c3.457-.449 3.105-7.139 6.059-8.477 2.379-1.051 2.065-7.694 5.257-7.949 1.408-3.806 3.127-7.253 5.117-10.264 1.968-3.061 3.683-6.522 5.111-10.317 1.619-3.18 2.961-6.749 4.458-10.125l4.799-11.231 1.776-.23c.041-1.173-.209-3.103.235-3.903 2.054-3.555 1.824-9.306 4.07-12.621l-4.622-3.06-3.742.485-1.942-2.293-10.148 1.316-.896 2.291-8.753 1.136-1.148 2.589-4.027.523-1.641 2.758-5.424.704-1.514 2.743-4.059.526-1.42 2.731-4.059.526-1.292 2.714-2.823.366-1.292 2.714-2.823.366-1.313 2.557c-1.3.169-2.853-.372-3.647.474-1.362 1.77-3.018 2.914-4.824 3.331-1.488 3.693-4.686 3.896-6.083 7.79l-2.918.379-1.041 2.416-3.13.724c-.525 2.667-2.011 2.648-3.959 2.795-.551 1.835-1.297 3.473-2.209 4.848-.874.962-2.105 1.175-2.559 3.143l-4.281.556c-1.882 3.638-4.85 4.872-6.72 8.35-2.623-.826-3.739 3.986-6.813 3.165l-1.067 5.443-3.964.514c-.668 3.8-3.027 5.007-4.62 7.389-.59.925-1.727.86-3.043 1.402-2.244 4.464-5.06 8.07-8.296 10.624-1.923 1.739-3.621 4.001-5.032 6.7-1.05 1.642-2.247 3.027-3.56 4.121l-4.227.973-.05 4.091a9.41 9.41 0 0 0-1.79.869c-.378.314-.51 1.286-.875 1.704a14.88 14.88 0 0 1-2.05 1.592l-1.808 4.213c-1.163 1.477-3.565-.386-4.083 3.076-2.47 1.656-4.58 4.292-6.16 7.694-.871 1.541-1.939 2.76-3.147 3.591-2.125 1.761-4.056 4.027-5.982 6.08-2.294 1.702-4.167 4.459-5.416 7.97-2.16 1.003-3.992 3.09-5.253 5.985-1.33 2.931-3.817 3.89-4.695 7.558-2.163-1.258-1.9 4.49-4.07 3.18l-3.254 7.477c-2.582-.514-4.01 2.642-5.89 4.318-2.024 1.337-3.802 3.373-5.22 5.981-1.296 3.192-3.663 4.082-4.888 7.318-1.225 3.235-3.837 3.733-4.466 7.58l-4.44.577-5.629 13.035-3.17.412-.33 4.18-4.944 4.884.338 2.609c-1.958 1.428-3.694 3.45-5.126 5.969-1.143 3.118-3.69 3.131-4.45 6.465-.166.711-.45 1.755-.798 1.801-2.442.316-2.549 5.21-4.524 5.891-1.976.68-1.77 4.26-4.239 5.854l-.38.049a78.46 78.46 0 0 1-3.243 7.316c-1.177 2.115-1.385 5.484-3.754 6.11-1.46.189-1.321 4.732-3.26 5.196-1.94.464-1.674 4.991-3.922 5.813-1.583.471-2.812 3.176-4.415 5.241l-2.473.321-1.293 2.713-2.79.362-1.275 2.606c-1.71-.256-3.276 1.592-4.988-.414.065-1.493 1.35-2.031.662-3.852.872-.484 2.03-.263.748-2.431a22.653 22.653 0 0 0-.748 2.431c-.663.029-1.319.114-1.967.256l-2.623-3.32 1.537-3.806 1.64 1.697a37.366 37.366 0 0 1 4.766-5.021c.978-.657 1.176-2.115 1.867-3.001.692-.885-.636-4.903 1.711-5.207.888-.116 1.517-2.478 2.235-3.897.72-1.419 2.522-1.441 3.08-3.847a53.63 53.63 0 0 1 1.924-5.554l3.52-.457.16-3.734c.807-2.484 1.855-4.711 3.11-6.609l3.86 2.417c1.465-1.888.42-3.98.382-6.256.236-.667.429-1.912.932-2.507 1.732-1.653 3.173-3.938 4.226-6.701 2.188-.284 2.751-3.646 3.89-5.809.394-.688 1.354-.494 1.78-1.186 1.456-2.204 1.922-5.819 4.063-7.21 2.141-1.392 2.155-6.751 4.566-7.806 2.41-1.056 1.906-6.188 4.556-5.895a34.301 34.301 0 0 0 2.494-5.628c.597-2.358 2.463-1.646 3.15-3.804.688-2.157 1.153-4.286 3.01-3.891.373-2.594 2.185-2.299 3.074-3.899.737-1.784 1.689-3.291 2.809-4.449 2.192-1.555 4.143-3.765 5.763-6.529 1.43-2.891 3.708-3.982 4.894-7.265.704-2.239 1.921-3.884 3.43-4.635 1.68-.219 1.834-3.262 3.338-3.351 1.504-.089 1.464-2.63 2.319-3.748a13.043 13.043 0 0 1 1.65-1.7c1.135-.942 1.7-3.297 3.274-3.342 1.093-2.708 2.527-4.983 4.226-6.701.986-1.348 1.44-3.316 3.021-4.052 1.582-.735 1.407-4.319 3.292-5.2 1.158-.522 1.538-3.807 2.61-4.741 1.071-.935 2.13-1.231 2.463-3.131l3.171-.412c1.02-2.295 2.292-4.252 3.763-5.792 1.639-1.539 3.23-3.442 4.9-4.985 1.67-1.543 1.575-5.509 3.962-5.5 1.075-2.898 3.178-3.595 4.705-5.49 1.528-1.896 3.17-3.647 4.692-5.595 1.771-1.379 3.36-3.231 4.705-5.49 1.934.491 2.087-2.552 3.042-3.896a19.069 19.069 0 0 1 2.642-2.995c1.7-1.523 3.305-3.274 4.803-5.237 1.364-1.662 2.419-3.974 3.89-5.809 5.665-6.039 11.277-12.496 17.171-18.512 1.152-1.632 2.567-2.743 4.127-3.24 1.141-.148 2.058-2.283 3.218-3.282 1.16-.999 2.195-4.21 3.552-4.439 1.815-.416 3.472-1.599 4.81-3.435 1.405-1.664 3.019-2.862 4.765-3.536 1.546-1.273 2.927-2.956 4.094-4.986a41.526 41.526 0 0 0 4.26-4.69c1.317-2.028 4.175.36 4.591-3.885 2.584 1.521 3.47-2.837 5.561-3.373 2.036-.55 3.77-2.345 4.861-5.033 2.779.541 4.052-4.557 6.967-3.716l1.274-2.605 2.823-.366 1.292-2.714 2.823-.366 1.009-2.412 5.803-.753.631-1.355c.118-.333.24-.88.399-.9 2.156-.28 3.553-2.689 5.431-3.622a9.776 9.776 0 0 1 3.013-.391l1.313-2.557 4.186-.543 1.292-2.714 4.282-.556 1.292-2.713 7.167-.93.966-2.247 11.956-1.552 1.392 1.782 1.297-2.184 1.768 1.945 4.377-.568 1.942 2.294 2.854-.37 6.23 7.996 2.091 16.118c-.949 5.109-1.821 9.571-2.584 14.126a104.641 104.641 0 0 1-.944 7.389c-.7 2.033-1.535 3.919-2.495 5.628a22.581 22.581 0 0 0-1.544 3.754 24.452 24.452 0 0 0-.36 4.184l-1.617.209c-1.295 2.449-1.759 6.328-4.398 5.875l.454 3.495c-2.637 6.017-5.479 11.955-7.967 18.378-1.349 3.516-3.982 4.601-5.171 8.362-1.237 3.668-2.718 7.076-4.419 10.173-.957 1.822-2.629 2.357-3.473 4.8-.513 2.029-1.427 3.667-2.616 4.689-1.333.916-2.097 3.72-3.066 5.702a44.086 44.086 0 0 0-2.494 5.628c-.687 2.157-2.592 1.397-3.112 3.851-.815 3.659-3.977 3.646-4.625 7.601-.647 3.956-3.324 3.455-4.334 6.61a78 78 0 0 1-3.989 9.269c-.661.806-1.405 1.439-2.207 1.877l-4.032 9.434c-2.888.853-3.287 5.731-5.164 8.414-1.069-.285-1.554.945-2.18 2.087-.683.805-1.45 1.423-2.277 1.833l.338 2.608c-.808 2.227-2.776 2.217-3.466 4.852-.491 1.728-1.16 3.282-1.982 4.607-.238.402-1.239-.104-1.395.181-1.531 4.601-4.704 6.498-6.518 10.658-1.712.223-1.983 2.857-2.802 4.501-.818 1.644-2.344.569-2.846 2.915-.502 2.346-2.382 3.015-3.434 4.848l.25 1.93c-1.143 3.148-2.693 5.818-4.559 7.858-1.84 1.724-2.112 6.586-4.708 7.454-.381.049-.517 1.234-.837 1.752-2.244 3.58-2.696 9.791-6.225 11.416l-5.144 11.806-4.673 4.744c-.288 2-.681 4.437-.866 6.742-.866.537-2.03.263-.742 2.483.276-.8.524-1.629.742-2.483l3.552-.461 1.384-4.741c1.728-.596 2.818-.896 3.842-1.453.222-.029.162-1.241.232-1.94l3.362-.436c4.932-7.217 11.528-10.566 15.584-19.313l2.728-.354 1.267-2.658 3.33-.432 1.781-5.906 3.571 2.666c2.174.13 4.293-.379 6.255-1.502l-1.972-2.767c.712-2.214 2.248-.822 3.589-2.163l1-1.986 3.171-.412-.011-3.817c-1.798-1.676-3.121-.444-4.526-.58l-.149-1.147c2.077-2.391 4.184-4.786 6.312-7.025.286-.037.879.31 1.382.457.064 2.485-1.248 3.557-1.765 5.533 1.338 1.365 2.04 1.061 3.67-1.537l2.696-.35c.34-1.847 1.795-2.566 1.413-5.01l2.813-3.176 4.26 4.751c2.953-1.654 5.273-5.111 6.513-9.703-2.414-2.629-5.116-4.337-7.869-4.972-.124-.994-.049-1.984.215-2.821.263-.838.7-1.478 1.246-1.824 2.051-.849 2.738-3.75 3.795-5.796l2.854-.371 1.218-2.545c1.895 1.929 3.227 5.734 6.317 3.954-.536 3.57-.845 5.414-1.138 7.627-.891.592-2.401-.856-2.601 1.822 2.069.792 2.069.792 2.601-1.822l2.251-.293c1.317-2.027 1.861-5.545 4.081-5.833.169-.181.141-1.397.186-2.04Zm-72.788 85.187c.636-.56 2.189 2.209 2.308-1.095-.892-1.157-1.684-1.054-2.182 1.079l-.126.016Zm60.101-79.828c.207.379.462.679.744.873.282.195.58.277.868.24.287-.037.555-.193.777-.453.223-.26.394-.616.497-1.034-.202-.346-.447-.618-.714-.793-.267-.175-.548-.249-.819-.213-.271.035-.524.177-.738.415-.213.237-.381.563-.488.949l-.127.016Zm-2.999 3.731.393-.953a3.929 3.929 0 0 0-1.046-.606s-.257.51-.381.792l1.034.767Zm-33.461 43.327.647.764a8.934 8.934 0 0 0 .235-1.674s-.354-.485-.546-.725l-.336 1.635Zm-5.331 1.911-.392.953c.347.278.709.48 1.078.603 0 0 .256-.511.381-.792l-1.067-.764Zm-200.843 56.615c-.04-.313-.457-.789-.577-.721-.318.22-.605.526-.85.906.193.24.45.737.57.669.312-.222.6-.509.858-.854Zm751.532-207.477-.249 2.313-4.217.547-1.451 2.735-11.386 1.477-1.356 2.722-4.217.547c-.7 3.061-3.205 2.644-3.963 5.5-1.811-.295-3.002 1.716-4.25 2.779a9.862 9.862 0 0 1-5.421.969l-1.172 2.645-4.345.564-1.073 2.42-5.645.732-1.356 2.722-8.594 1.116-1.261 2.709-17.442 2.264-.96 2.299-7.262.942-1.222 2.758-7.231.938-1.19 2.754-7.199.934-1.191 2.753-7.357.955-1.041 2.416-4.25.551-1.292 2.714-2.918.379-.646 1.728c-1.453 1.726-3.301.905-4.858 1.585l-.991 2.303-5.803.753-1.216 2.81c-1.141.148-3.032-.508-3.869.502-1.447 1.551-3.054 2.725-4.772 3.483-1.373 1.401-2.653 3.004-3.828 4.793l-5.391.7-1.293 2.714-2.6.337-1.274 2.605c-1.459.19-3.28-.423-3.744 2.714l-5.296.687-4.778 5.924-3.774.49-1.324 2.718-4.249.551-1.261 2.71-2.886.374-1.016 2.36-4.544 1.014-1.041 2.415a12.318 12.318 0 0 0-3.869.503c-1.253.533-1.773 2.988-3.449 2.993-.952.124-1.723 2.133-2.894 2.55-1.171.417-2.886.375-3.456 2.941l-2.854.371-1.292 2.714-2.823.366-1.292 2.714-4.091.53c-.551.974-.964 2.512-1.454 2.47-1.848-.079-2.981 1.872-4.223 2.988-1.242 1.115-2.522.698-3.599 2.588-1.076 1.89-2.698.828-4.263 1.19l-1.231 2.44-5.677.737-1.261 2.71-10.148 1.317-2.722-6.065.826-2.335-1.146-1.124c-1.791-.882-1.985 5.827-4.495 1.644l.948-2.139-1.103-8.502 1.222-7.478 1.815-.925.213-3.581 3.161-7.943c-.992-4.167 2.562-5.105 1.767-9.246a2.286 2.286 0 0 1 .004-.579c.026-.186.076-.356.146-.501 1.191-2.753 2.495-5.627 3.565-8.312 1.071-2.685.221-7.242 2.487-8.173.221-3.264-1.093-6.435.631-8.303-1.808-2.258-2.248-6.392-4.268-8.039l-6.225-2.003-2.74-2.721-1.884 3.374-12.939 1.679-1.016 2.36-5.803.753-1.216 2.81a11.208 11.208 0 0 1-3.171.411c-1.506-.176-1.567 2.59-2.853 2.863-1.287.273-2.411.313-3.742.486l-1.313 2.557-4.186.543-1.293 2.714-2.822.366-.88 1.918c-1.315 1.549-3.131.724-4.726 1.355l-.785 1.906c-1.142 1.633-2.822.366-4.51 2.017-.845 3.186-3.754 1.389-5.8 2.768-.467 4.357-4.59.171-4.665 5.061l-4.503.584-1.324 2.718-2.791.362-1.292 2.714-5.392.699a35.027 35.027 0 0 1-3.859 4.798c-1.553 1.209-3.426 1.187-4.734 3.531-.639 1.038-2.347.305-3.71.482l-1.32 2.505-4.155.539-1.324 2.717-4.249.552-1.261 2.71-3.013.391-1.292 2.713-2.728.354-1.419 2.73c-3.415-1.466-5.259 3.706-8.337 3.84-.956 3.572-3.324 1.97-5.166 2.686l-1.281 2.553-2.759.358-1.293 2.714-2.854.37-.991 2.303-4.281.556-1.191 2.754-5.803.753-1.184 2.805-5.804.753-1.073 2.42-4.376.568-1.806-1.993-2.823.366-8.02-10.363c.686-3.165-4.021-4.145-1.912-8.026.942.302 1.462 2.569 2.581 1.999 1.174 2.341 1.174 2.341 2.942 1.05-.878-2.538-1.968-.752-2.942-1.05l.904-4.467-.596-4.59 2.178-1.608c.282-2.052.666-4.807 1.018-7.558 0 0-.088-.678-.405-1.38l-2.201-.563-1.335-3.327 2.698-4.063c1.665.155 3.665 3.396 5.818 1.844l1.475 4.158s.446.207.507-.066l8.286-18.897-.149-1.147c.505.11 1.005.055 1.469-.164.465-.219.883-.596 1.231-1.108.347-.512.616-1.149.79-1.87a8.71 8.71 0 0 0 .219-2.325l2.886-.375c.05 3.123-1.436 4.589-2.346 6.776-.909 2.186-1.153 4.286-3.01 3.891l-3.596 8.317-5.45 12.428-2.211 14.025 4.552 3.016 2.79-.362 1.016-2.36 5.804-.753 1.122-2.532 5.265-.684 4.714-5.915 3.806-.494 1.299-2.662 1.859 2.146c2.849-1.542 5.15-4.706 6.512-8.96l2.934 2.483 1.156-2.272 4.25-.551 1.243-2.601 1.462 1.826 7.413-8.229 5.265-.683c.025-1.542.042-2.657.09-3.778 1.22-2.279 3.171-.411 5.104-2.412l.504-1.339c1.785-1.398 4.123-.535 6.268-1.397l1.188-2.275 1.347 1.681c1.405-.606 1.427-3.42 3.346-4.783l4.884-.634 1.324-2.718 7.23-.938 3.171-7.625 7.104-.922 1.578-2.75 4.36-.938.991-2.303 6.597-.856 5.475-6.014c1.202-1.875 2.854-2.865 4.638-2.777l3.616-.469 4.403-5.08 1.562 1.601c1.114.31 2.212.018 3.118-.829.016-1.116.064-2.236.081-3.352.371-.367.709-.994 1.09-1.043l13.763-1.786 1.275-2.606c1.33-1.18 2.162 1.258 3.195 1.76l1.233-2.175 1.662 2.118 10.18-1.321 1.623 2.07 4.186-.543c1.706 2.961 4.55 1.266 5.809 5.505.774 2.233.521 5.501 2.647 6.976l2.234 17.213c-1.85 2.15-1.675 6.476-2.825 9.543-1.15 3.066-2.649 6.178-3.989 9.269-1.34 3.091-2.803 5.986-3.957 9.265-1.155 3.279-2.088 7.272-3.298 11.619.204 1.565.678 2.989 2.446 2.441l1.319-2.505 5.613-.728 1.325-2.718 2.79-.362 1.293-2.714 2.886-.374 1.281-2.553c4.254-2.182 8.28-5.16 12.005-8.878l3.837-.498a43.516 43.516 0 0 0 3.828-4.793c1.134-1.95 3.212-.098 4.262-2.94 1.05-2.841 3.351-1.018 4.643-3.732.819-1.644 3.314.684 4.48-2.013 1.165-2.697 3.083-1.09 4.601-1.817.473-1.019 1.099-1.817 1.831-2.335s1.55-.741 2.392-.653l1.306-2.609 2.823-.367 1.293-2.713 4.281-.556.841-1.965c1.444-.963 3.057-1.317 4.703-1.035l2.062 2.225-.02-4.134 1.603-3.55 4.186-.543 1.324-2.718 2.791-.362 1.293-2.714 4.281-.555 1.023-2.307 3.11-.881 1.195-2.224c1.681-.218 3.588.065 4.313-1.303.419-.86.972-1.52 1.614-1.926a2.837 2.837 0 0 1 2.082-.409c1.748.303 2.157-2.508 3.431-2.886 1.273-.377 2.886-.374 3.455-2.941l4.313-.56 1.261-2.709 2.886-.375.984-2.355 5.804-.753 1.222-2.758 5.772-.749 1.222-2.757 7.231-.939 1.066-2.472 10.021-1.3 1.356-2.722 4.123-.535 1.267-2.657 10.117-1.313.823-1.857c.157-.286.293-.728.451-.748l15.857-2.058.991-2.303 7.516-.976 2.203 2.313 2.765-3.541 2.692 2.356 2.664-.346 1.186-2.541 11.544-1.498 1.235-2.653c1.228.265 2.327-1.203 3.631.643l-1.05 2.841 4.491 5.04 1.259-7.696-1.876-2.779c.207-1.884 1.149-1.581 2.046-1.38 1.301 1.582.818 3.819 1.315 5.664l1.804 2.471-2.644 2.73c1.94 2.029 3.488.29 5.261.537l1.113-6.827-2.905-1.268c1.019-1.462 2.343-2.302 3.784-2.4l.047-3.613c.565-1.611 1.503-1.839 2.729-.089l-1.016 2.36.426 4.771-.969 3.467c.344 1.653.567 3.374 1.809 3.001ZM291.047 383.318c1.067-.722 2.204-.657.943-2.668a9.629 9.629 0 0 0-.572 2.302.786.786 0 0 0-.594.145c-.181.129-.333.333-.443.594-.11.261-.174.571-.186.903-.013.331.026.673.114.995a66.86 66.86 0 0 0-1.985 7.312c.295.94.629 1.854.999 2.734l1.778-3.943-.792-6.103c.99-.076 1.358-.972.738-2.271Zm48.421-130.079 2.188-.284c1.426 1.3 1.013 3.582 1.499 5.587l-.962 2.777 3.577 7.439c-.952 2.351-3.11.881-4.476 1.535-2.091 3.054-3.37 7.319-3.624 12.086l1.315 1.686-1.007 2.677 1.721 2.322.629 4.851c-1.208 2.12-1.774 5.216-3.6 7.045l-2.477-2.437-1.225 2.492-1.617.21-.938-3.007 1.181-3.071-3.77-2.216 10.572-24.391c-.034-.261-.129-.991-.42-1.749-2.058-2.438-2.375.839-3.297 2.178l-4.25.552-.916 2.134c-1.656.998-3.543 1.038-5.371.114.824-2.869 2.264-5.075 4.09-6.259l-4.793-.651-.664-3.627 1.89-1.094 1.987 2.394 2.125-.275.824 2.121 7.738-1.005.333-4.392 2.214 1.41c.545-2.511-.33-4.784-.476-7.152Zm-6.611 37.031.616.769c.124-.537.213-1.099.266-1.679l-.577-.72-.305 1.63Z"
		opacity=".4"/>
	<path
		d="m225.418 356.934-1.211 2.597-2.918.379-3.038-6.766c-.36-5.258 2.822-5.087 4.115-7.801.555-1.186 2.17-.918 3.393-.44.372 2.869-1.002 1.721-1.575 2.273s-.245 1.092-.484 2.237c2.548.253 4.852-.629 7.158-.504.165 4.752-3.316 3.772-3.392 7.653-.016.374-1.35.282-2.048.372ZM187.017 396.5c-1.397-.083-2.677.985-4.115-.155-.034-.261-.278-.653-.109-.834l2.427-6.15 3.172-.411 2.059-5.253 2.22-.288c.589 3.25.856 6.566.79 9.816l-2.196-2.261c-1.222 1.272-3.54-1.185-4.746 1.942l.498 3.594Zm70.44-80.428-3.957-.176-.718-3.301 3.637-4.026c.972-.437 2.036-.409 3.074.079l-.587 3.683 2.702 1.187.345 2.66-3.553 4.174-.943-4.28Zm34.222-22.052c-.07.699-.091 2.028-.25 2.048-2.19.02-2.494 5.628-5.582 2.953l-1.915 5.87-5.487.712c.071-.698-.001-1.75.257-1.996 1.392-1.453 2.887-2.602 4.349-4.012.286-.037.18-1.349.25-2.048l3.584-.465 1.211-2.597 3.583-.465Z"
		opacity=".4"/>
	<path
		d="m283.303 297.549-3.742.486-1.387-3.48 3.699-5.784.823 2.863 2.967 1.737c-.081 2.61-3.147.355-2.36 4.178Zm37.433 27.285 2.917-.378c-.46 4.409-2.701 6.768-3.726 10.296-1.645.744-2.535-.149-2.697-2.886 1.379-2.3 3.66-2.862 3.506-7.032ZM253.48 329.9c2.194-2.812 4.596-5.203 7.168-7.135.158-.021.409.424.627.608.222 3.949-2.032 3.976-3.256 5.726-1.224 1.75-2.327 2.689-3.674 4.243l-.865-3.442Zm55.68-3.565c-.372-2.868 1.492-3.163 1.389-4.953 2.175-1.131 3.726 3.865 5.524 1.563l.318 2.452-1.999 2.487-1.68-2.01-3.552.461Zm7.517-50.41-1.403 3.1-1.043-4.055c1.46-2.418 3.41-.814 5.427-2.667.319-.519.742-3.226 2.68-1.462.094 2.216-.953 3.094-1.411 4.533l-4.25.551Zm6.608-23.134c2.854-.37 4.979-.646 7.627-.618l-1.824 4.586-2.37-1.867c-1.783-.565-1.568 4.075-3.495 2.893a7.457 7.457 0 0 1-.665-.656c-.479-1.954 1.056-2.047.727-4.338Zm-19.318 22.347c-2.523-.309.106 4.547-1.853 4.855-.838-.74-.617-2.519-.997-3.955a38.297 38.297 0 0 0-1.724-4.338l1.214-3.074c1.363-.177 1.797 2.418 2.852 2.6l.508 3.912Zm-1.49 79.223-.345-2.66 3.247-6.787 1.924 2.403-.799 4.028-1.839.239-2.188 2.777Zm-56.621-13.868c-.616 3.952-3.105 4.646-4.681 6.919-.181.342-.865-.206-1.431-.344-.298-2.295 1.005-2.942 1.348-4.524 2.106 1.318 1.945-4.39 4.117-2.815.227.225.444.481.647.764Zm45.824-46.472a708.43 708.43 0 0 0-.142-1.096c1.706-2.955 4.12-4.629 6.775-4.698.305 2.348-.998 2.994-1.4 5.115l-5.233.679Zm-64.936 67.674c.256 4.953-3.003 4.686-4.097 7.692-.217.559-1.236.161-2.473.321l.984-3.098c.686-2.423 2.975-1.924 3.532-4.595.129-.495 1.357-.23 2.054-.32Zm5.175-5.605a30.472 30.472 0 0 1-.593 2.888c-.325.805-.69 1.561-1.093 2.263l-3.488.453c-.081-.626.109-1.394.218-2.044.109-.651.384-2.012.58-2.993l4.376-.567Zm108.514-78.259 1.459-.189c1.601 1.648 1.183 4.142 1.388 6.715l-1.79.869a6.081 6.081 0 0 1-.934-1.581 8.256 8.256 0 0 1-.529-1.962 8.345 8.345 0 0 1-.043-2.043c.07-.661.222-1.276.449-1.809Zm-15.983 41.587-2.283.296c-.726-2.61.713-4.441.304-7.093l1.831-.556c.315.436.57.668.738.965 1.437 2.625-1.105 3.909-.59 6.388Zm-56.351-2.603c-.518 1.385-1.223 2.543-2.072 3.402-.848.858-1.822 1.399-2.86 1.587-.284-2.191.903-2.982 1.316-4.52l3.616-.469Zm56.383 2.602 2.886-.375a8.595 8.595 0 0 1-.22 2.321c-.174.719-.444 1.353-.793 1.861-.348.508-.768.88-1.233 1.092-.465.212-.965.26-1.469.141.07-.699.109-1.393.212-2.096.102-.703.39-1.96.617-2.944Z"
		opacity=".4"/>
	<path
		d="m316.072 322.947-1.801-3.691 1.54-3.541c1.659 1.853 1.193 4.724 1.72 7.043l-1.459.189Zm-84.312 33.164c-.311-2.4 1.073-3.163 1.502-5.075l1.975.062c.311 2.4-.869 3.242-1.289 4.729l-2.188.284Zm90.826-51.303.63 4.851-2.886.374-.623-4.799 2.879-.426Zm-54.487 12.007c-.312-2.4 1.041-3.159 1.47-5.071l1.975.062c.311 2.4-.869 3.242-1.289 4.729l-2.156.28Zm1.626-10.078c-.312-2.4 1.041-3.159 1.502-5.075l2.945 3.065c-1.492 2.422-3.093 1.516-4.447 2.01Zm24.017 48.649c.096 2.481-.77 3.76-2.053 5.305l-.786-4.565 2.839-.74Zm4.477-67.887c1.679-1.968 1.679-1.968 4.173-1.39-.847 2.921-2.744 1.47-4.173 1.39Zm41.712-34.162c-1.92-.388-3.378 1.552-4.921-.9.714-1.949 2.052-1.327 3.049-1.35.508-.066 1.057 1.188 1.872 2.25Zm-35.964 21.801c1.006.294 2.096-1.492 2.973 1.046-1.792 1.346-1.792 1.346-2.973-1.046Zm3.798 4.916a5.128 5.128 0 0 1 1.887-.616c.19-.025.534.885.704 1.447.169.561-.216.824-.375.844-.158.021-1.302-.096-1.988-.166l-.228-1.509Zm-12.717 4.887c-1.002 1.722-1.781 1.929-2.806.736.257-2.739 1.271-2.128 2.806-.736Zm-19.95 6.3c.532-2.615.532-2.615 2.602-1.823-.201 2.678-1.743 1.234-2.602 1.823Zm.002.001c-.538 2.563-.538 2.563-2.576 1.766.169-2.673 1.71-1.229 2.576-1.766Zm-7.749 8.376c.538-2.563.538-2.563 2.576-1.766-.233 2.682-1.711 1.229-2.576 1.766Zm52.947 10.42c-.531 2.615-.531 2.615-2.57 1.818.201-2.678 1.648-1.221 2.57-1.818Zm10.858-1.567c1.208 1.859 1.448 3.207.838 4.718-1.715-.785-1.474-2.407-.838-4.718Z"
		opacity=".4"/>
	<path
		d="m320.734 324.832-2.886.375-.318-2.452a3.048 3.048 0 0 1 1.935-.251c.498.36.876 1.531 1.269 2.328Zm-23.19 20.09c1.209 1.858 1.448 3.206.838 4.717-1.714-.785-1.473-2.407-.838-4.717Zm31.297-82.613c.532-2.615.532-2.615 2.602-1.822-.235 2.417-1.745.968-2.602 1.822Zm-7.986 4.803.304-1.63c.159-.021.557.564.546.724a10.947 10.947 0 0 1-.227 1.727l-.623-.821Zm-4.296 2.678a5.23 5.23 0 0 1-.881.91l-.578-.72c.271-.354.566-.658.882-.91l.577.72Zm-24.659 7.284.647.765c-.275.343-.57.648-.881.91l-.577-.721.811-.954Zm-6.52 5.671.95-2.616c1.254 1.959.124 1.946-.95 2.616Z"
		opacity=".4"/>
	<path
		d="m286.136 282.117-.95 2.616c-1.254-1.959-.124-1.946.95-2.616Zm58.817-5.243-1.015-.611c.125-.282.248-.828.381-.792.369.122.731.325 1.078.603l-.444.8Zm-57.517 12.766c.258.477.478 1.002.653 1.559 0 0-.217.559-.342.84a12.755 12.755 0 0 1-.686-1.555l.375-.844Zm-19.74 9.668-1.011 2.889c-1.161-2.236-.031-2.224 1.011-2.889Zm9.696-.092-.305 1.631c-.033-.261-.55-.512-.545-.725.032-.597.108-1.177.227-1.727l.623.821Zm-15.323 6.923-.304 1.631c-.192-.241-.55-.512-.545-.725a8.864 8.864 0 0 1 .234-1.675l.615.769Zm8.035.284-.95 2.616c-1.221-1.698-.079-1.846.95-2.616Zm8.721-1.132-.95 2.617c-1.22-1.699-.11-1.843.95-2.617Zm-3.215 5.295-1.035-.767c.125-.282.248-.828.375-.844a6.39 6.39 0 0 1 1.053.659l-.393.952Zm46.605-5.411.944-2.669c1.26 2.011.092 1.951-.944 2.669Zm7.615.284-.424.957a10.32 10.32 0 0 1-.654-1.56s.211-.61.336-.892l.742 1.495Zm4.237-1.395-.305 1.631c-.224-.236-.588-.56-.584-.773.053-.58.142-1.142.266-1.679l.623.821Zm-77.812 17.152.616.768a5.234 5.234 0 0 1-.882.91s-.353-.484-.577-.72l.843-.958Zm447.314-56.829-.424.956a10.843 10.843 0 0 1-.661-1.611s.218-.559.343-.84l.742 1.495Zm-462.401 62.34-.424.957a9 9 0 0 1-.654-1.56s.218-.558.343-.84l.735 1.443Zm86.962-10.014.951-2.616c1.254 1.959.123 1.946-.951 2.616Zm-89.636 12.268-.305 1.631c-.04-.313-.557-.564-.552-.777a9.04 9.04 0 0 1 .234-1.675l.623.821Z"
		opacity=".4"/>
	<path
		d="M328.509 316.4c.216 1.669-.119 2.562-1.141 2.641-.255-1.717.119-2.561 1.141-2.641Zm383.573-49.778c.258.477.478 1.002.654 1.559 0 0-.218.559-.336.892a16.533 16.533 0 0 1-.692-1.607l.374-.844Zm3.351 7.684-1.737-1.95c1.059-1.781 1.176.113 1.737 1.95Zm3.793-2.084-.392.952a20.513 20.513 0 0 1-.686-1.555s.243-.615.368-.896l.71 1.499Zm-477.258 63.15.623.821a5.234 5.234 0 0 1-.882.91s-.353-.485-.577-.721l.836-1.01Zm67.531-9.4-.912 2.664c-1.26-2.011-.028-1.959.912-2.664Zm8.35-.763c.149 1.148.291 2.243-.701 2.054-.253.032-.511-1.207-.758-1.865l1.459-.189Zm391.505-48.047.912-2.664c1.297 1.794.123 1.946-.912 2.664Z"
		opacity=".4"/>
	<path
		d="m714.94 272.99 1.762 1.893c-1.052 1.833-1.201-.057-1.762-1.893Zm-478.458 65.59.623.821a3.938 3.938 0 0 1-.857.854s-.378-.429-.57-.669l.804-1.006Zm-23.71 20.313.944-2.669c1.166 2.024.029 1.959-.944 2.669Z"
		opacity=".4"/>
	<path
		d="m213.428 358.225-.944 2.668c-1.261-2.011-.13-1.998.944-2.668Zm96.73-9.531.951-2.617c1.254 1.959.218 1.934-.951 2.617Zm-100.232 13.114.647.765c-.27.353-.566.657-.881.91l-.577-.721.811-.954Zm84.599-8.593.944-2.668c1.26 2.011.123 1.946-.944 2.668Z"
		opacity=".4"/>
	<path
		d="M309.39 350.97c-.217-1.669.125-2.509 1.146-2.589.249 1.665-.118 2.562-1.146 2.589Zm-92.239 12.34 1.035.768c-.159.02-.248.827-.381.791a3.872 3.872 0 0 1-1.046-.606l.392-.953Zm77.746-10.46c.223 1.721-.12 2.561-1.141 2.641-.248-1.665.119-2.561 1.141-2.641Zm7.898 3.962c-.729.094-1.364.177-1.383-1.465-.054-.417.687-.672 1.065-.986l.318 2.451Zm-90.808 14.913-1.761-1.893c1.052-1.833 1.2.057 1.761 1.893Zm86.397-11.636.918-2.612c1.261 2.011.124 1.946-.918 2.612Z"
		opacity=".4"/>
	<path
		d="M211.74 371.067c.983-.128 1.586.536 1.746 2.266-.977.18-1.534-.384-1.746-2.266Zm6.502-.843c.267.474.498.997.685 1.555 0 0-.211.61-.367.896a16.448 16.448 0 0 1-.661-1.611s.218-.559.343-.84Zm80.867-10.759-.951 2.616c-1.38-1.943-.091-1.951.951-2.616Zm-8.77 5.485-.399.9a8.957 8.957 0 0 1-.654-1.559s.218-.559.343-.84l.71 1.499Zm6.028.968-.305 1.631c-.192-.24-.557-.564-.545-.725.032-.597.108-1.177.227-1.727l.623.821Zm-124.042 42.354c-.216-1.669.126-2.509 1.148-2.588.248 1.665-.119 2.561-1.148 2.588Z"
		opacity=".4"/>
</svg>