<svg xmlns="http://www.w3.org/2000/svg" width="16" height="16"
	 viewBox="0 0 16 16" fill="currentcolor">
	<path
		d="M8 1C8.90483 3.07104 9.35725 4.10657 10.0609 4.9509C10.3597 5.30951 10.6905 5.64027 11.0491 5.93912C11.8934 6.64275 12.929 7.09517 15 8C12.929 8.90483 11.8934 9.35725 11.0491 10.0609C10.6905 10.3597 10.3597 10.6905 10.0609 11.0491C9.35725 11.8934 8.90483 12.929 8 15C7.09517 12.929 6.64275 11.8934 5.93912 11.0491C5.64027 10.6905 5.30951 10.3597 4.9509 10.0609C4.10657 9.35725 3.07104 8.90483 1 8C3.07104 7.09517 4.10657 6.64275 4.9509 5.93912C5.30951 5.64027 5.64027 5.30951 5.93912 4.9509C6.64275 4.10657 7.09517 3.07104 8 1Z"/>
</svg>